{"title":"Etienne de Crécy - Hashtag My Ass.mp4","uid":11802160,"size":38684680,"categoryP":"video","categoryS":"music_videos","magnet":"?xt=urn:btih:42dd88c91e9ba9996a25548a3648a30ba9562ecb&amp;dn=Etienne+de+Cr%26eacute%3Bcy+-+Hashtag+My+Ass.mp4&amp;tr=udp%3A%2F%2Ftracker.openbittorrent.com%3A80&amp;tr=udp%3A%2F%2Fopen.demonii.com%3A1337&amp;tr=udp%3A%2F%2Ftracker.coppersurfer.tk%3A6969&amp;tr=udp%3A%2F%2Fexodus.desync.com%3A6969","seeders":2,"leechers":0,"uploader":"TeamVazze.hu","files":1,"time":1428426454,"description":"Video\nID                             : 1\nFormat                         : AVC\nFormat/Info                    : Advanced Video Codec\nFormat profile                 : &lt;a class=&quot;__cf_email__&quot; href=&quot;/cdn-cgi/l/email-protection&quot; data-cfemail=&quot;ade5c4cac5ede19e839c&quot;&gt;[email&amp;#160;protected]&lt;/a&gt;&lt;script cf-hash='f9e31' type=&quot;text/javascript&quot;&gt;\n/* &lt;![CDATA[ */!function(){try{var t=&quot;currentScript&quot;in document?document.currentScript:function(){for(var t=document.getElementsByTagName(&quot;script&quot;),e=t.length;e--;)if(t[e].getAttribute(&quot;cf-hash&quot;))return t[e]}();if(t&amp;&amp;t.previousSibling){var e,r,n,i,c=t.previousSibling,a=c.getAttribute(&quot;data-cfemail&quot;);if(a){for(e=&quot;&quot;,r=parseInt(a.substr(0,2),16),n=2;a.length-n;n+=2)i=parseInt(a.substr(n,2),16)^r,e+=String.fromCharCode(i);e=document.createTextNode(e),c.parentNode.replaceChild(e,c)}}}catch(u){}}();/* ]]&gt; */&lt;/script&gt;\nFormat settings, CABAC         : Yes\nFormat settings, ReFrames      : 1 frame\nCodec ID                       : avc1\nCodec ID/Info                  : Advanced Video Coding\nDuration                       : 2mn 34s\nBit rate                       : 1 806 Kbps\nMaximum bit rate               : 3 809 Kbps\nWidth                          : 1 280 pixels\nHeight                         : 720 pixels\nDisplay aspect ratio           : 16:9\nFrame rate mode                : Constant\nFrame rate                     : 25.000 fps\nColor space                    : YUV\nChroma subsampling             : 4:2:0\nBit depth                      : 8 bits\nScan type                      : Progressive\nBits/(Pixel*Frame)             : 0.078\nStream size                    : 33.3 MiB (90%)\nTagged date                    : UTC 2014-11-28 20:01:34\n\nAudio\nID                             : 2\nFormat                         : AAC\nFormat/Info                    : Advanced Audio Codec\nFormat profile                 : LC\nCodec ID                       : 40\nDuration                       : 2mn 34s\nBit rate mode                  : Variable\nBit rate                       : 192 Kbps\nMaximum bit rate               : 201 Kbps\nChannel(s)                     : 2 channels\nChannel positions              : Front: L R\nSampling rate                  : 44.1 KHz\nCompression mode               : Lossy\nStream size                    : 3.54 MiB (10%)\nEncoded date                   : UTC 2014-11-28 20:01:32\nTagged date                    : UTC 2014-11-28 20:01:34","torrent":{"xt":"urn:btih:42dd88c91e9ba9996a25548a3648a30ba9562ecb","amp;dn":"Etienne+de+Cr%26eacute%3Bcy+-+Hashtag+My+Ass.mp4","amp;tr":["udp%3A%2F%2Ftracker.openbittorrent.com%3A80","udp%3A%2F%2Fopen.demonii.com%3A1337","udp%3A%2F%2Ftracker.coppersurfer.tk%3A6969","udp%3A%2F%2Fexodus.desync.com%3A6969"],"infoHash":"42dd88c91e9ba9996a25548a3648a30ba9562ecb","infoHashBuffer":{"type":"Buffer","data":[66,221,136,201,30,155,169,153,106,37,84,138,54,72,163,11,169,86,46,203]},"announce":[],"urlList":[]}}